<svg width="96" height="46" viewBox="0 0 96 46" fill="none" xmlns="http://www.w3.org/2000/svg">
<path d="M57.1057 9.05469C53.713 9.05559 50.6205 10.3372 48.2898 12.4422C45.9572 10.3399 42.8665 9.0574 39.4775 9.0574C39.4494 9.0574 39.4203 9.0574 39.3931 9.0574C32.1761 9.1044 26.332 14.9557 26.332 22.1583C26.332 29.3898 32.2214 35.2583 39.4766 35.2583C42.8656 35.2583 45.9563 33.9776 48.288 31.8735C47.801 31.4351 47.3602 30.9498 46.944 30.4418H49.6583C49.2493 30.9416 48.8031 31.4098 48.3233 31.8455H48.3215C48.3106 31.8572 48.2989 31.8645 48.288 31.8744C50.6214 33.9803 53.7157 35.2637 57.1102 35.2628C64.3699 35.2601 70.253 29.3925 70.2512 22.1583C70.2512 22.1556 70.2512 22.1538 70.2512 22.152C70.2521 14.9178 64.3654 9.05288 57.1057 9.05469ZM47.0945 13.7952H49.593C49.9612 14.2399 50.3031 14.7081 50.6132 15.198H46.1559C46.4433 14.7298 46.7589 14.2481 47.0945 13.7952ZM45.3796 16.5736H51.3714C51.5845 17.0273 51.7732 17.4964 51.9382 17.9772H44.6695C44.742 17.8416 44.9959 17.2957 45.3796 16.5736ZM31.6981 25.4952L32.4953 20.4862L30.6969 25.4952H29.7329L29.6077 20.4862L28.7562 25.4952H27.4058L28.5249 18.8521H30.5672L30.6389 22.9284L32.0183 18.8521H34.2338L33.1301 25.4952H31.6981ZM36.4729 25.4844L36.5192 24.9538C36.4974 24.9565 36.0712 25.5946 35.0836 25.5946C34.5666 25.5946 33.7323 25.3135 33.7323 24.0916C33.7323 22.5379 35.0038 22.0227 36.2145 22.0227C36.4049 22.0227 36.8157 22.0571 36.8157 22.0571C36.8157 22.0571 36.862 21.9622 36.862 21.7055C36.862 21.2834 36.4811 21.2256 35.9596 21.2256C35.0409 21.2256 34.4342 21.4705 34.4342 21.4705L34.6374 20.2684C34.6374 20.2684 35.3738 19.9611 36.3324 19.9611C36.8284 19.9611 38.255 20.0135 38.255 21.6431L37.7054 25.4844H36.4729ZM41.6812 23.7924C41.6812 25.6462 39.8792 25.5666 39.5645 25.5666C38.3901 25.5666 38.0274 25.4048 37.9938 25.3958L38.1806 24.1756C38.1824 24.1648 38.7701 24.388 39.424 24.388C39.8012 24.388 40.291 24.351 40.291 23.9018C40.291 23.2293 38.5388 23.3902 38.5388 21.7932C38.5388 20.3841 39.589 19.972 40.6247 19.972C41.4246 19.972 41.9161 20.0813 41.9161 20.0813L41.7393 21.3123C41.7393 21.3123 40.9802 21.25 40.7834 21.25C40.2855 21.25 40.0144 21.3584 40.0144 21.7055C40.0135 22.4032 41.6812 22.0616 41.6812 23.7924ZM43.8451 24.2787C43.9693 24.2787 44.1099 24.2362 44.206 24.2362L44.031 25.4211C43.8904 25.46 43.4923 25.601 42.9817 25.6046C42.3297 25.61 41.8662 25.2467 41.8662 24.4224C41.8662 23.8692 42.6616 19.3113 42.6924 19.2814H44.0918L43.9494 20.0967H44.6477L44.469 21.4099H43.7281L43.3345 23.8295C43.3046 24.022 43.3581 24.2787 43.8451 24.2787ZM46.9231 19.943C48.4594 19.943 48.9192 21.0638 48.9192 21.983C48.9192 22.3508 48.7342 23.2546 48.7342 23.2546H45.8901C45.8901 23.2546 45.6271 24.3709 47.1299 24.3709C47.8345 24.3709 48.6163 24.0274 48.6163 24.0274L48.3696 25.3714C48.3696 25.3714 47.918 25.601 46.8913 25.601C45.7786 25.601 44.4736 25.1319 44.4736 23.1615C44.4745 21.4542 45.5156 19.943 46.9231 19.943ZM50.6296 29.0924H45.9663C45.6825 28.6405 45.4176 28.1769 45.19 27.6897H51.3959C51.1674 28.1741 50.9116 28.6423 50.6296 29.0924ZM50.3167 25.5052H48.8802L49.7535 20.0985H51.0567L50.9316 20.8821C50.9316 20.8821 51.3959 20.0298 52.0226 20.0298C52.2048 20.0298 52.2928 20.0479 52.2928 20.0479C52.1069 20.4257 51.9428 20.7718 51.7723 21.6657C50.8001 21.3223 50.7257 23.1959 50.3167 25.5052ZM55.7898 25.4211C55.7898 25.4211 55.0371 25.6127 54.5655 25.6127C52.895 25.6127 52.0471 24.464 52.0471 22.7241C52.0471 20.1003 53.6187 18.703 55.2339 18.703C55.9639 18.703 56.8101 19.0446 56.8101 19.0446L56.5815 20.5224C56.5815 20.5224 56.0093 20.1238 55.2974 20.1238C54.3451 20.1238 53.4908 21.0294 53.4908 22.6753C53.4908 23.486 53.889 24.2416 54.8829 24.2416C55.3554 24.2416 56.0401 23.8991 56.0401 23.8991L55.7898 25.4211ZM59.1589 25.4871L59.2061 24.9529C59.1834 24.9556 58.7572 25.5937 57.7705 25.5937C57.2535 25.5937 56.4192 25.3126 56.4192 24.0907C56.4192 22.537 57.6907 22.0218 58.9005 22.0218C59.0909 22.0218 59.5026 22.0562 59.5026 22.0562C59.5026 22.0562 59.5498 21.9622 59.5498 21.7055C59.5498 21.2834 59.1689 21.2256 58.6465 21.2256C57.7278 21.2256 57.122 21.4705 57.122 21.4705L57.3252 20.2684C57.3252 20.2684 58.0616 19.9611 59.0211 19.9611C59.5162 19.9611 60.9437 20.0135 60.9428 21.6431L60.3932 25.4844C60.3923 25.4871 59.1589 25.4871 59.1589 25.4871ZM62.0673 25.5052H60.6308L61.5042 20.0985H62.8083L62.6831 20.8821C62.6831 20.8821 63.1484 20.0298 63.775 20.0298C63.9573 20.0298 64.0444 20.0479 64.0444 20.0479C63.8594 20.4257 63.6934 20.7718 63.5238 21.6657C62.5507 21.3223 62.4763 23.1959 62.0673 25.5052ZM66.356 25.4907L66.4168 24.9927C66.4168 24.9927 65.9525 25.5766 65.1127 25.5766C63.9491 25.5766 63.3787 24.4567 63.3787 23.3125C63.3787 21.5428 64.447 20 65.7294 20C66.5547 20.0018 67.0816 20.7276 67.0816 20.7276L67.3845 18.8612L68.7874 18.8584L67.7173 25.4907H66.356ZM69.1239 25.3036C69.0867 25.3705 69.0341 25.422 68.967 25.4618C68.9008 25.4988 68.8301 25.5178 68.7557 25.5178C68.6831 25.5178 68.6133 25.4988 68.5462 25.4618C68.4791 25.422 68.4265 25.3705 68.3893 25.3036C68.3512 25.2358 68.3331 25.1671 68.3331 25.0939C68.3331 25.0198 68.3521 24.9493 68.3893 24.8824C68.4265 24.8155 68.4818 24.7613 68.548 24.7252C68.6169 24.6881 68.685 24.6691 68.7557 24.6691C68.8282 24.6691 68.8972 24.6881 68.9643 24.7252C69.0332 24.7622 69.0858 24.8137 69.1239 24.8824C69.1629 24.9502 69.1801 25.0207 69.1801 25.0939C69.1801 25.1671 69.162 25.2367 69.1239 25.3036Z" fill="white"/>
<path d="M69.0083 29.2956C68.9992 29.2893 68.991 29.2793 68.9765 29.2738C68.9619 29.2683 68.9392 29.2656 68.9038 29.2656H68.8184V29.4019H68.9092C68.9519 29.4019 68.9801 29.3983 68.9965 29.3828C69.0119 29.3701 69.0192 29.3547 69.0192 29.3329C69.0192 29.3183 69.0155 29.3083 69.0083 29.2956Z" fill="white"/>
<path d="M69.3043 29.2179C69.2653 29.1472 69.2118 29.0973 69.1438 29.0601C69.0758 29.023 69.0069 29.0039 68.9361 29.0039C68.8636 29.0039 68.7947 29.023 68.7276 29.0601C68.6605 29.0973 68.6051 29.149 68.5679 29.2179C68.529 29.285 68.5117 29.3558 68.5117 29.4283C68.5117 29.5009 68.5308 29.5725 68.5679 29.6387C68.6069 29.7058 68.6595 29.7603 68.7257 29.7974C68.7929 29.8346 68.8636 29.8537 68.938 29.8537C69.0105 29.8537 69.0812 29.8346 69.1475 29.7974C69.2137 29.7603 69.2672 29.7058 69.3043 29.6387C69.3424 29.5725 69.3606 29.5018 69.3606 29.4283C69.3606 29.3549 69.3415 29.2841 69.3043 29.2179ZM69.0432 29.6641L69.0033 29.5925C68.9715 29.5363 68.9452 29.4991 68.9253 29.4846C68.9126 29.4755 68.8926 29.4682 68.8672 29.4682H68.8246V29.6632H68.7502V29.2052H68.908C68.9624 29.2052 69.0014 29.2098 69.0232 29.2188C69.0477 29.2279 69.0686 29.2406 69.0813 29.2633C69.0958 29.2841 69.1021 29.3068 69.1021 29.3304C69.1021 29.3639 69.0894 29.3921 69.0667 29.4184C69.0432 29.4419 69.0105 29.4574 68.9715 29.4601C68.9878 29.4655 69.0005 29.4746 69.0105 29.4846C69.0296 29.5027 69.0513 29.5326 69.0785 29.5743L69.1348 29.6641H69.0432Z" fill="white"/>
<path d="M36.3291 23.0586C35.3034 23.0586 35.0957 23.5193 35.0957 23.9029C35.0957 24.1006 35.2091 24.4307 35.6435 24.4307C36.486 24.4307 36.661 23.3261 36.6338 23.0912C36.5939 23.0831 36.5685 23.0595 36.3291 23.0586Z" fill="white"/>
<path d="M46.9272 21.1914C46.1645 21.1914 46.0176 22.0593 46.0176 22.1509H47.5711C47.5711 22.0811 47.7171 21.1914 46.9272 21.1914Z" fill="white"/>
<path d="M65.9691 21.3398C65.3533 21.3398 64.8663 22.0545 64.8672 23.14C64.8672 23.8021 65.103 24.2265 65.6072 24.2265C66.3654 24.2265 66.7309 23.2371 66.7309 22.4998C66.7309 21.6863 66.4724 21.3398 65.9691 21.3398Z" fill="white"/>
<path d="M69.0597 24.9287C69.028 24.8724 68.9835 24.8289 68.9273 24.7972C68.8711 24.7654 68.8139 24.75 68.7541 24.75C68.696 24.75 68.6371 24.7663 68.5809 24.7972C68.5246 24.8262 68.4802 24.8715 68.4485 24.9287C68.4167 24.9858 68.4004 25.0466 68.4004 25.1055C68.4004 25.1663 68.4167 25.2261 68.4466 25.2814C68.4802 25.3377 68.5228 25.3803 68.579 25.4138C68.6353 25.4447 68.6933 25.4628 68.7541 25.4628C68.8148 25.4628 68.8747 25.4447 68.9291 25.4138C68.9853 25.3821 69.0289 25.3386 69.0615 25.2814C69.0933 25.2252 69.1078 25.1663 69.1078 25.1055C69.1078 25.0456 69.0914 24.9858 69.0597 24.9287ZM68.8629 25.3386L68.8221 25.2678C68.7904 25.2107 68.765 25.1744 68.7459 25.1608C68.7305 25.149 68.7124 25.1436 68.6861 25.1436H68.6443V25.3377H68.5682V24.8806H68.7269C68.7804 24.8806 68.8203 24.8851 68.843 24.8951C68.8656 24.9033 68.8856 24.9187 68.901 24.9386C68.9164 24.9586 68.9219 24.9813 68.9219 25.0057C68.9219 25.0393 68.9092 25.0674 68.8856 25.0928C68.862 25.1191 68.8294 25.13 68.7913 25.1345C68.8094 25.1418 68.8212 25.1499 68.8303 25.1581C68.8493 25.1771 68.8711 25.2044 68.8974 25.2479L68.9536 25.3386H68.8629Z" fill="white"/>
<path d="M59.0146 23.0586C57.9889 23.0586 57.7812 23.5193 57.7812 23.9029C57.7812 24.1006 57.8937 24.4307 58.329 24.4307C59.1715 24.4307 59.3456 23.3261 59.3193 23.0912C59.2785 23.0831 59.2531 23.0595 59.0146 23.0586Z" fill="white"/>
<path d="M68.8307 24.9576C68.8234 24.9485 68.8134 24.9412 68.7998 24.9349C68.7843 24.9303 68.7616 24.9258 68.7253 24.9258V24.9267H68.6426V25.0648H68.7325C68.7752 25.0648 68.8034 25.0594 68.8207 25.0457C68.8343 25.0321 68.8425 25.0148 68.8425 24.9948C68.8425 24.9794 68.8388 24.9703 68.8307 24.9576Z" fill="white"/>
</svg>
