<svg width="82" height="22" viewBox="0 0 82 22" fill="none" xmlns="http://www.w3.org/2000/svg">
<g clip-path="url(#clip0_939_922)">
<path fill-rule="evenodd" clip-rule="evenodd" d="M0.21875 0.654786H7.73099C8.32435 0.652504 8.90924 0.784411 9.43416 1.03886C9.95909 1.29332 10.408 1.66253 10.7413 2.11402C11.2647 2.92992 11.6403 3.81872 11.8532 4.74559C12.7618 7.55178 13.6567 10.3705 14.5652 13.1766C14.5652 13.4386 14.9856 13.5258 15.067 13.2639C16.0026 10.4203 16.8976 7.57672 17.779 4.74559C18.0099 3.70561 18.4715 2.72059 19.135 1.85208C19.6186 1.32373 20.2671 0.944936 20.9927 0.767029C21.613 0.654788 22.2466 0.617062 22.8775 0.654786C25.0743 0.654786 27.2845 0.654786 29.4813 0.654786C29.4813 7.71392 29.4813 14.7731 29.4813 21.8571C27.0947 21.8571 24.7217 21.8571 22.3487 21.8571C22.3487 17.7164 22.3487 13.5882 22.3487 9.4475C22.3487 9.07335 21.6707 9.11076 21.63 9.4475C20.2107 13.6048 18.796 17.7414 17.3857 21.8571C15.7043 21.8571 14.0228 21.8571 12.3414 21.8571C10.9854 17.7289 9.53448 13.5882 8.09711 9.45999C8.09711 9.11077 7.5954 9.11078 7.36488 9.31033V21.8571C4.99188 21.8571 2.61888 21.8571 0.245876 21.8571V0.654786H0.21875ZM32.7628 0.654786C35.1493 0.654786 37.5223 0.654786 39.8953 0.654786C39.8953 4.84537 39.8953 9.03593 39.8953 13.2265C40.0987 13.3886 40.4784 13.4385 40.6005 13.2265C42.1734 10.1833 43.7509 7.13188 45.3329 4.07209C45.7457 3.08334 46.327 2.16134 47.055 1.34073C47.4015 0.980246 47.889 0.760549 48.411 0.729614C50.8247 0.729614 53.252 0.729614 55.6656 0.729614C55.6656 7.78875 55.6656 14.8562 55.6656 21.932H48.5466C48.5466 17.7746 48.5466 13.5965 48.5466 9.39764C48.5466 9.03596 47.8822 9.0609 47.8144 9.39764C46.3228 12.4159 44.8448 15.4465 43.3531 18.4647C42.9429 19.4074 42.415 20.3031 41.7802 21.1338C41.6051 21.3763 41.3701 21.5773 41.0943 21.7204C40.8186 21.8635 40.51 21.9445 40.1937 21.9569H32.7763C32.7763 14.9061 32.7763 7.83862 32.7763 0.754544L32.7628 0.654786ZM59.1506 10.3206C66.6221 10.3206 74.0666 10.3206 81.5517 10.3206C81.2426 11.2633 80.6834 12.1205 79.9245 12.8149C79.2318 13.5091 78.395 14.0686 77.4634 14.4606C76.5319 14.8526 75.5245 15.0691 74.5005 15.0973H66.3645C66.3645 17.3547 66.3645 19.6122 66.3645 21.8696H59.1234C59.1099 17.9409 59.137 14.112 59.1099 10.2707L59.1506 10.3206Z" fill="white"/>
<path fill-rule="evenodd" clip-rule="evenodd" d="M58.2148 0.65625H74.9886C76.4718 0.761472 77.8876 1.26935 79.0566 2.11549C79.8968 2.71754 80.5956 3.47004 81.1107 4.3275C81.6257 5.18497 81.9464 6.12959 82.0533 7.10427C82.1008 7.80762 82.0735 8.51351 81.972 9.212C78.5549 9.212 75.192 9.212 71.7206 9.212C70.5482 9.24567 69.3747 9.20403 68.2086 9.08731C65.5404 8.8283 63.0458 7.747 61.1302 6.01918C59.5626 4.5625 58.5413 2.68374 58.2148 0.65625Z" fill="white"/>
</g>
<defs>
<clipPath id="clip0_939_922">
<rect width="81.7804" height="21.2023" fill="white" transform="translate(0.21875 0.582031)"/>
</clipPath>
</defs>
</svg>
